<svg width="62" height="91" viewBox="0 0 62 91" fill="none" xmlns="http://www.w3.org/2000/svg">
<path d="M35.7219 24.5753C35.7362 24.8457 35.7576 25.1231 35.8718 25.3722C36.043 25.7706 36.3783 26.0481 36.7992 26.1477C37.2059 26.2402 37.6411 26.0552 37.8908 25.735C38.0692 25.5002 38.1619 25.1872 38.1762 24.8955C38.1905 24.7034 38.1904 24.5113 38.1833 24.312C38.2261 24.0345 38.2547 23.7499 38.2404 23.4653C38.2261 23.1381 38.1833 22.7681 38.0406 22.4693C37.9836 22.3412 37.8979 22.2273 37.798 22.1206L37.7481 22.0352C37.5198 21.7293 37.1274 21.5372 36.7422 21.6083C36.3498 21.6795 36.0644 21.957 35.8932 22.3056C35.6292 22.8321 35.6078 23.5223 35.6577 24.0986C35.6648 24.2551 35.6863 24.4188 35.7219 24.5753Z" fill="#242647"/>
<path d="M19.9196 22.1277L19.8697 22.0423C19.6414 21.7364 19.249 21.5442 18.8637 21.6154C18.4713 21.6865 18.186 21.964 18.0147 22.3127C17.7508 22.8392 17.7294 23.5293 17.7793 24.1056C17.7936 24.2622 17.815 24.4258 17.8506 24.5824C17.8649 24.8527 17.8863 25.1302 18.0005 25.3792C18.1717 25.7777 18.507 26.0552 18.9279 26.1548C19.3346 26.2473 19.7698 26.0623 20.0195 25.7421C20.1979 25.5073 20.2906 25.1942 20.3049 24.9025C20.3192 24.7104 20.3192 24.5183 20.312 24.3191C20.3548 24.0416 20.3834 23.757 20.3691 23.4724C20.3548 23.1451 20.312 22.7751 20.1693 22.4763C20.098 22.3411 20.0195 22.2273 19.9196 22.1277Z" fill="#242647"/>
<path d="M60.2004 32.4444C59.8651 32.174 59.4941 31.9606 59.116 31.7898L59.1802 31.6902C59.28 31.4839 59.2587 31.2704 59.2373 31.0499C59.2159 30.8578 59.2301 30.6657 59.223 30.4735C59.2016 30.0965 59.1088 29.7122 58.9661 29.3565C58.695 28.6592 58.1956 28.0402 57.5535 27.656C56.2336 26.8733 54.4857 27.0583 53.5012 28.2892C53.2443 28.6094 53.0588 28.9794 52.9518 29.3707C52.9304 29.4561 52.909 29.5557 52.8947 29.6553C52.7948 29.6482 52.7021 29.634 52.5951 29.634C51.104 29.6411 49.7627 30.6372 49.4274 32.0958C49.299 32.665 49.3061 33.284 49.563 33.7891C49.0136 33.8816 48.4928 34.0808 48.0291 34.4081C46.4523 35.5181 45.903 37.7735 46.9731 39.41C47.2514 39.8298 47.6509 40.1642 48.1004 40.399C47.8435 40.8685 47.9506 41.4591 48.0219 41.9643C48.1717 43.06 48.2573 44.2126 48.507 45.3083C47.7009 45.6569 46.9517 46.1123 46.3025 46.6886C46.2454 46.7384 46.2026 46.7882 46.167 46.8451C43.0563 46.1336 39.9743 45.3154 36.9279 44.3549C35.3369 43.8497 33.753 43.3161 32.1834 42.754C31.4201 42.4765 30.6495 42.1706 29.879 41.8789C35.023 41.1105 39.6461 39.0471 43.2204 36.0944C47.815 32.3021 50.7116 26.9943 50.7116 21.1102C50.7116 15.2261 47.8221 9.91831 43.2204 6.12601C38.6187 2.3266 32.3119 0 25.3558 0C18.3997 0 12.0857 2.3266 7.49116 6.12601C2.89658 9.91831 0 15.2261 0 21.1102C0 26.9943 2.88945 32.3021 7.49116 36.0944C8.33303 36.7917 9.23196 37.432 10.1737 38.0225C8.88237 40.1855 7.88355 42.5264 6.94894 44.8601C5.88591 47.5211 4.9513 50.239 4.14511 52.9925C3.38886 55.561 2.58267 58.2149 2.21881 60.8759C1.91203 63.1029 2.06898 65.6074 3.73131 67.3079C5.05831 68.6668 7.02742 69.3072 8.93231 69.7056C8.76822 70.0543 8.68261 70.4385 8.58273 70.8583C8.37583 71.7121 8.21887 72.5801 8.06191 73.441C7.74799 75.17 7.50542 76.906 7.32706 78.6563C6.97034 82.1284 6.87759 85.6148 6.99174 89.1011C7.00601 89.5067 7.39841 89.7415 7.73373 89.8268C9.80985 90.3249 11.993 90.3889 14.0834 89.9549C15.603 89.6418 18.4996 89.0442 18.7778 87.1587C19.0918 85.0313 15.817 84.7752 14.4187 84.6329C12.4639 84.4266 10.4876 84.5475 8.57559 84.9815C8.56845 82.8826 8.63267 80.7908 8.8039 78.699C8.93945 77.0483 9.12495 75.3976 9.35325 73.7541C9.4674 72.9358 9.61009 72.1176 9.73851 71.2994C9.81699 70.8227 9.91686 70.3602 9.9026 69.8978C10.1737 69.9476 10.4377 69.9902 10.6945 70.0329C13.4984 70.4883 16.3807 70.531 19.1916 70.1681C19.477 70.1325 19.7767 70.0899 20.0763 70.0472C20.112 71.4346 20.3974 72.8291 20.6399 74.181C20.9324 75.8174 21.2678 77.4396 21.653 79.0547C22.024 80.62 22.4378 82.1782 22.8801 83.7293C23.2226 84.9317 23.4794 86.2836 24.4355 87.1658C25.4485 88.105 26.9111 87.9698 28.1596 87.6995C29.665 87.3722 31.149 86.8812 32.5331 86.1982C33.646 85.6503 34.9159 84.8819 35.2156 83.5799C35.4796 82.4272 34.7519 81.3956 33.6674 81.0327C32.2976 80.5774 30.6852 80.9189 29.3011 81.111C28.3737 81.2319 27.4533 81.3813 26.5401 81.5592C25.684 81.7229 24.6566 81.7869 23.9646 82.3561L23.936 82.3917C23.4866 80.8406 23.1299 79.254 22.7589 77.71C22.4307 76.3297 22.1096 74.9494 21.8171 73.562C21.5603 72.3453 21.3676 71.0931 21.0109 69.8978C22.9872 69.5633 25.049 69.0226 26.5972 67.8771C28.5663 66.4256 28.9373 64.0136 28.7233 61.7297C28.5948 60.3138 28.2738 58.9264 28.0526 57.5176C27.7886 55.8243 27.6103 54.1167 27.5033 52.4091C27.3106 49.1006 27.4462 45.7921 27.86 42.505C29.1442 43.1809 30.5639 43.6576 31.9052 44.1557C33.5604 44.7676 35.2299 45.3439 36.9064 45.8775C40.2882 46.959 43.7127 47.9053 47.1658 48.7093C47.6795 48.8302 48.1931 48.937 48.714 49.0508C48.8067 49.3852 48.9208 49.7125 49.0207 50.0469C49.2419 50.7513 49.4702 51.4557 49.7056 52.16C50.1908 53.583 50.6831 55.006 51.1682 56.429C51.3394 56.9342 52.1171 57.0125 52.4096 56.5785C53.123 55.5183 53.7651 54.4155 54.3288 53.27C54.5999 52.715 54.8496 52.1458 55.0707 51.5695C55.1778 51.292 55.2848 51.0145 55.3847 50.737C55.4346 50.5947 55.4845 50.4596 55.5202 50.3173C56.091 50.3386 56.6474 50.2888 57.1611 50.1038C58.3954 49.6556 59.2801 48.2824 58.7093 46.9946C58.5024 46.5179 58.1386 46.1479 57.7034 45.8419C57.8746 45.5004 57.9887 45.1233 58.1314 44.7747C58.3098 44.3193 58.4881 43.8711 58.6665 43.4157L59.8151 40.4986C59.8794 40.3349 59.8651 40.1499 59.808 39.9792C60.9852 39.2392 61.7843 37.987 61.9626 36.5995C62.1766 35.0058 61.4561 33.4476 60.2004 32.4444ZM12.949 86.248C13.7338 86.2765 14.5186 86.3618 15.2962 86.497C15.7029 86.5682 16.1096 86.6464 16.502 86.7603C16.6018 86.7887 16.8159 86.8172 16.8872 86.8955L16.9443 86.9239L16.9015 86.988C16.5804 87.4718 15.5103 87.6923 15.0037 87.8489C14.2689 88.0837 13.5126 88.2402 12.7492 88.3398C11.3723 88.5177 10.0096 88.4821 8.64694 88.2544C8.6184 87.7422 8.597 87.2299 8.58273 86.7176C10.0168 86.3832 11.4793 86.1982 12.949 86.248ZM24.2714 83.4945C24.8778 83.6297 25.4485 83.4376 26.0478 83.3095C26.6757 83.1814 27.2964 83.0605 27.9313 82.9538C29.2155 82.7332 30.5211 82.534 31.8196 82.4415C32.369 82.4059 33.8743 82.3774 33.6246 83.2882C33.3535 84.2771 31.684 84.8179 30.8707 85.1594C29.7577 85.629 28.5948 86.0132 27.4105 86.2338C26.1763 86.4615 25.2987 86.2551 24.8136 85.0385C24.6138 84.5333 24.4354 84.021 24.2714 83.5016V83.4945ZM1.81927 21.1244C1.81927 15.8522 4.39481 11.0638 8.64694 7.5419C12.8919 4.03421 18.7992 1.83567 25.3487 1.83567C31.8909 1.83567 37.8054 4.03421 42.0504 7.5419C46.3025 11.0567 48.8781 15.8522 48.8781 21.1244C48.8781 26.3966 46.3025 31.185 42.0504 34.707C37.8054 38.2146 31.8981 40.4132 25.3487 40.4132C18.8064 40.4132 12.8919 38.2146 8.64694 34.707C4.39481 31.1921 1.81927 26.3966 1.81927 21.1244ZM26.8255 64.7536C26.0336 67.0233 23.3796 67.6067 21.282 68.0549C18.6994 68.6099 16.0454 68.802 13.4056 68.6028C11.0013 68.4249 8.31162 68.0763 6.12135 67.009C4.01669 65.9774 3.54581 63.8287 3.73131 61.6657C3.95248 59.2181 4.66592 56.7706 5.32229 54.4084C6.11421 51.5482 7.04169 48.7306 8.06905 45.9487C8.61127 44.483 9.21056 43.0386 9.80271 41.5872C9.33184 43.9422 8.99653 46.3329 8.58273 48.6737C8.32589 50.1038 7.57677 52.096 8.53278 53.4052C9.38892 54.5863 11.1012 54.9705 12.4211 55.3618C15.6886 56.3294 19.2915 56.8204 22.5163 55.4401C23.7577 54.9064 25.1917 54.0028 25.4914 52.5798C25.7696 51.2564 24.8421 50.2177 23.6079 49.9046C20.5329 49.1148 17.3081 51.5837 16.2023 54.3088C16.1452 54.444 16.1381 54.572 16.1524 54.6859C14.7968 54.508 13.4556 54.1594 12.15 53.7467C11.0655 53.4052 9.39605 53.1206 9.40319 51.6905C9.40319 50.3173 9.81698 48.8587 10.0382 47.4997C10.5019 44.6039 11.1155 41.6725 11.3438 38.734C15.3604 40.9539 20.1762 42.2417 25.3415 42.2417C25.6269 42.2417 25.9051 42.2346 26.1834 42.2275C25.4985 47.578 25.5841 53.0352 26.4759 58.3572C26.8184 60.3779 27.5318 62.7258 26.8255 64.7536ZM17.5721 54.7855C18.3854 52.836 20.3546 51.1995 22.5448 51.1782C23.7006 51.1639 24.6067 51.9395 23.6364 52.9783C22.7874 53.8819 21.3676 54.3586 20.1833 54.5934C19.3058 54.7713 18.4354 54.8139 17.5721 54.7855ZM53.8864 29.6197C53.9934 29.3138 54.1647 29.0363 54.393 28.8086C54.8995 28.3106 55.5701 28.1185 56.2693 28.2323C56.9471 28.3461 57.5821 28.7446 57.9388 29.3351C58.1243 29.6482 58.2384 30.0111 58.2884 30.3668C58.3098 30.5304 58.3383 30.7154 58.3169 30.8791C58.3026 30.9645 58.2598 31.0427 58.2313 31.121C58.1885 31.2491 58.1742 31.3558 58.1742 31.4839C57.368 31.3131 56.5262 31.3416 55.7057 31.5906C55.6415 31.6119 55.5773 31.6404 55.5131 31.6617C55.192 30.872 54.5642 30.2316 53.7937 29.8972C53.8222 29.8119 53.8507 29.7122 53.8864 29.6197ZM50.469 32.1029C50.7187 31.4839 51.1753 31.0285 51.8103 30.7937C52.9518 30.3668 54.2003 30.9858 54.6855 32.0531C53.6867 32.6223 52.8662 33.533 52.4381 34.6002C52.2883 34.4508 52.1314 34.3156 51.953 34.2018C51.5677 33.9599 51.0826 33.8105 50.6331 33.7607C50.5404 33.7536 50.4405 33.7607 50.3477 33.7536C50.2978 33.1915 50.2621 32.6365 50.469 32.1029ZM47.7437 38.3498C47.4511 37.5885 47.6081 36.7063 48.0719 36.0517C48.5427 35.3829 49.249 34.9489 50.0695 34.8848C50.4548 34.8564 50.8757 34.9133 51.2396 35.0343C51.4465 35.1054 51.6605 35.1694 51.8602 35.2548C51.9744 35.3046 52.0814 35.3402 52.1884 35.39C52.0315 36.1086 52.0101 36.8557 52.1528 37.5743C52.2883 38.2858 52.538 39.0187 53.0089 39.5807C52.0029 39.6092 50.997 39.6519 49.9981 39.7088L49.8911 39.7159C49.8483 39.6946 49.7984 39.6732 49.7413 39.6661C49.8127 39.7088 49.777 39.6946 49.6414 39.6092C49.5701 39.5736 49.4988 39.5452 49.4131 39.538C49.299 39.5167 49.1848 39.5238 49.0707 39.5025C48.8923 39.474 48.714 39.41 48.557 39.3175C48.1646 39.104 47.9006 38.7483 47.7437 38.3498ZM53.7509 50.8794C53.5226 51.4557 53.28 52.0249 53.016 52.5798C52.7092 53.2344 52.3739 53.8677 52.0101 54.4867C51.6747 53.5546 51.3466 52.6296 51.0112 51.6976C50.7687 51.0288 50.519 50.3671 50.2621 49.7054C50.2193 49.5987 50.1765 49.4848 50.1408 49.371C50.9256 49.5346 51.7104 49.6912 52.4952 49.8406C52.9803 49.9331 53.494 50.0469 54.022 50.1465C53.9292 50.3884 53.8436 50.6303 53.7509 50.8794ZM56.4833 48.631C55.777 48.816 54.9495 48.5954 54.2503 48.4745C52.2312 48.1258 50.2264 47.7416 48.2359 47.3147C50.0338 46.3186 52.0029 45.8562 54.1219 46.1621C55.0065 46.2902 56.9614 46.6246 57.3395 47.5993C57.5321 48.1187 56.9114 48.5172 56.4833 48.631ZM57.3823 42.8963C57.1968 43.3517 57.0184 43.7999 56.833 44.2553C56.7117 44.5612 56.5547 44.8814 56.4405 45.2087C56.0838 45.0735 55.7342 44.9597 55.4061 44.8743C53.544 44.362 51.425 44.3762 49.513 44.9525C49.4773 44.1414 49.3632 43.3232 49.2847 42.5264C49.2562 42.2062 48.9779 41.146 49.299 41.0109C49.5202 40.9184 49.9268 40.9753 50.1694 40.961C50.5261 40.9468 50.8757 40.9326 51.2324 40.9255C53.5511 40.8543 55.8627 40.8472 58.1814 40.9041C57.9174 41.5729 57.6534 42.2346 57.3823 42.8963ZM58.9233 39.1183C58.7164 39.2179 58.6237 39.3815 58.5952 39.5594C57.0969 39.5238 55.6058 39.5167 54.1076 39.5452L54.1004 39.5238C53.865 38.919 53.5297 38.3427 53.3799 37.7024C53.2229 37.062 53.2087 36.4003 53.3371 35.7529C53.5725 34.5433 54.4072 33.5045 55.5202 32.978C56.6261 32.4444 57.896 32.4515 58.9733 33.0634C60.0078 33.6539 60.764 34.7425 60.7997 35.945C60.8425 37.2399 60.1005 38.5491 58.9233 39.1183Z" fill="#242647"/>
<path d="M26.761 33.2057C27.3175 32.7361 27.6671 32.0103 27.6314 31.2846C27.8169 31.3131 28.0024 31.3273 28.1808 31.3344C29.0583 31.3629 29.9572 31.1992 30.7278 30.7652C31.3627 30.4095 32.283 29.9256 32.4471 29.1572C32.4828 28.9936 32.3259 28.894 32.1903 28.894C31.8264 28.894 31.5411 29.0576 31.22 29.2141C30.9132 29.3636 30.5993 29.4845 30.264 29.5699C29.6576 29.7335 29.0297 29.8616 28.3948 29.8474C27.8098 29.8332 27.239 29.6766 26.7253 29.4063C26.2045 29.1288 25.9191 28.7303 25.541 28.3034C24.9988 27.6915 23.9144 28.2323 24.2639 29.0363C24.3139 29.143 24.371 29.2497 24.4352 29.3493C24.0999 29.4987 23.8145 29.7193 23.5719 29.9897C23.0582 30.566 22.9013 31.3629 23.1296 32.0957C23.3436 32.7717 23.9429 33.3622 24.6135 33.5828C25.3626 33.846 26.1688 33.7108 26.761 33.2057ZM25.3412 32.5795C25.277 32.5724 25.2128 32.5724 25.1486 32.5653L25.0202 32.5369L24.8775 32.487L24.7277 32.4159L24.6278 32.3448L24.478 32.2238L24.4637 32.2096L24.4209 32.1669L24.3139 32.0388L24.2568 31.9605L24.2425 31.9463V31.9392C24.214 31.8823 24.1855 31.8254 24.1641 31.7613L24.1284 31.6617L24.0999 31.5052L24.0927 31.4411V31.3842C24.0927 31.3273 24.0998 31.2704 24.1141 31.2135L24.1284 31.1494L24.1355 31.1139C24.1569 31.0569 24.1783 30.9929 24.2069 30.936L24.2354 30.8719L24.2425 30.8577L24.2568 30.8435C24.2996 30.7794 24.3353 30.7225 24.3852 30.6656L24.4494 30.5945L24.4851 30.5589C24.535 30.5162 24.585 30.4664 24.6421 30.4308L24.7205 30.3739L24.7633 30.3454C24.8846 30.2814 25.0059 30.2387 25.1272 30.196H25.1343H25.1415H25.1557C25.434 30.4237 25.7336 30.6229 26.0261 30.7794C26.1474 30.8435 26.2759 30.9004 26.4043 30.9573C26.39 31.0214 26.3829 31.0925 26.3971 31.1708C26.4114 31.2348 26.4185 31.2917 26.4257 31.3558V31.3842V31.4269L26.4043 31.5905L26.39 31.6759V31.683L26.3329 31.8396L26.2973 31.925L26.283 31.9534L26.2544 31.9961L26.2116 32.053C26.1688 32.11 26.126 32.1669 26.0832 32.2238L26.0333 32.2807L25.9049 32.3874L25.7836 32.4728L25.648 32.5369L25.5339 32.5795L25.4126 32.6009C25.384 32.5724 25.2128 32.5653 25.3412 32.5795Z" fill="#242647"/>
</svg>
